<svg width="71" height="15" viewBox="0 0 71 15" fill="none" xmlns="http://www.w3.org/2000/svg">
<path d="M12.5387 9.09976C12.5395 10.2646 12.1922 11.4037 11.5408 12.3731C10.8893 13.3425 9.96283 14.0988 8.87826 14.5466C7.79369 14.9944 6.59964 15.1136 5.4468 14.8892C4.29396 14.6648 3.23399 14.1068 2.40068 13.2857C1.56737 12.4645 0.998055 11.417 0.76459 10.2754C0.531125 9.13371 0.643971 7.94907 1.08889 6.87094C1.5338 5.79281 2.29085 4.86951 3.26448 4.21759C4.23812 3.56566 5.3847 3.21431 6.55953 3.20788C7.34403 3.19924 8.12243 3.34547 8.84937 3.63804C9.57632 3.93062 10.2373 4.36371 10.7938 4.91206C11.3502 5.46041 11.7911 6.11308 12.0907 6.83203C12.3902 7.55099 12.5425 8.32187 12.5387 9.09976Z" fill="url(#paint0_linear_3_447)"/>
<path d="M60.8324 4.39959C60.2083 4.00767 59.4838 3.80163 58.7451 3.80593C57.9958 3.78805 57.2553 3.96915 56.6003 4.33046C55.8779 4.73494 55.2525 5.28983 54.7672 5.95693V0.0203321H53.3811V7.60373C51.8473 9.44164 49.5631 12.17 49.4196 12.2758C48.9878 12.7118 48.4709 13.0561 47.9005 13.2875C47.3301 13.5189 46.7181 13.6326 46.1019 13.6217C45.2989 13.6497 44.505 13.4448 43.8177 13.0321C43.1317 12.687 42.5618 12.1515 42.1773 11.491C41.8003 10.8405 41.5944 10.1064 41.5786 9.35625C41.5623 8.79058 41.6689 8.22807 41.8911 7.70682C42.1132 7.18556 42.4458 6.71775 42.8663 6.33509C43.29 5.9228 43.795 5.60166 44.3496 5.39177C44.9042 5.18187 45.4966 5.08773 46.0896 5.11524C46.8278 5.08727 47.5617 5.23949 48.2267 5.55854C48.8917 5.87759 49.4675 6.35369 49.9035 6.94501L51.0025 6.27816C50.6971 5.77548 50.2993 5.33411 49.8297 4.97699C49.315 4.63387 48.7564 4.36038 48.1688 4.16376C47.5228 3.94302 46.8423 3.83836 46.1593 3.85472C45.1017 3.83213 44.0548 4.06962 43.1123 4.54597C42.2247 5.03067 41.483 5.74079 40.9634 6.60346C40.4736 7.46395 40.2112 8.43328 40.2007 9.42131C40.1955 10.1519 40.3404 10.8759 40.6267 11.5491C40.9129 12.2223 41.3345 12.8306 41.8657 13.337C42.4112 13.8713 43.0601 14.2908 43.7733 14.5703C44.4864 14.8498 45.2492 14.9836 46.0158 14.9635C47.0308 14.9703 48.032 14.7302 48.9316 14.2641C49.4619 13.989 49.9505 13.6413 50.3833 13.2313C50.5145 13.1174 52.1098 11.1616 53.3729 9.60428V14.9635H54.7262L54.7508 10.7631C54.7327 9.80351 54.7875 8.84389 54.9148 7.89243C55.1414 7.1181 55.5902 6.42583 56.2066 5.9C56.827 5.38201 57.6101 5.09446 58.4211 5.08677C59.0493 5.03645 59.6739 5.21963 60.1734 5.60067C60.6729 5.98171 61.0116 6.53337 61.1236 7.14832C61.2302 7.95708 61.2768 8.7725 61.263 9.58802L61.2343 14.9838H62.5712V9.25459C62.5712 7.75824 62.4933 6.73357 62.1611 6.07485C61.9053 5.39269 61.4407 4.80692 60.8324 4.39959ZM33.4505 3.80593C32.6853 3.79139 31.9259 3.94038 31.2239 4.24278C30.522 4.54519 29.8939 4.99391 29.3824 5.55845C29.1559 5.80133 28.9502 6.06247 28.7673 6.33915C27.537 7.94122 24.2563 12.1212 24.084 12.2554C23.6633 12.6958 23.1537 13.0434 22.5884 13.2753C22.0231 13.5072 21.4148 13.6183 20.8033 13.6013C19.9951 13.6292 19.196 13.4244 18.5027 13.0117C17.8317 12.6562 17.2737 12.1226 16.891 11.4707C16.5054 10.8224 16.291 10.0882 16.2677 9.33592C16.2585 8.76858 16.3711 8.2058 16.5981 7.68492C16.825 7.16405 17.1611 6.69699 17.5841 6.31476C18.0071 5.90278 18.5114 5.58181 19.0654 5.37192C19.6193 5.16202 20.2109 5.06772 20.8033 5.09491C21.5447 5.0689 22.2814 5.22184 22.95 5.54057C23.6187 5.8593 24.1992 6.33428 24.6418 6.92468L25.708 6.25783C25.4149 5.75491 25.0264 5.31305 24.5638 4.95666C24.0411 4.6098 23.4725 4.33614 22.8743 4.14342C22.2287 3.92676 21.5503 3.82222 20.8689 3.83439C19.8114 3.81281 18.7648 4.05025 17.8219 4.52564C16.9366 5.01203 16.1966 5.72183 15.6771 6.58312C15.1824 7.44244 14.9144 8.41165 14.8979 9.40097C14.927 10.8879 15.5461 12.3036 16.6208 13.341C17.6955 14.3785 19.1393 14.9541 20.6392 14.9432C21.6868 14.9488 22.721 14.7092 23.6575 14.2438C24.1834 13.9674 24.6678 13.6198 25.097 13.211C25.1995 13.1053 26.6635 11.2633 27.9676 9.62461C28.0403 11.0335 28.6459 12.3634 29.6637 13.3491C30.6814 14.3349 32.0365 14.9041 33.4587 14.9432C34.2148 14.9448 34.9629 14.7898 35.655 14.488C36.3471 14.1862 36.9679 13.7443 37.4777 13.1906C38.4463 12.1591 38.9906 10.8055 39.0035 9.3961C39.0164 7.98671 38.4969 6.62355 37.5474 5.57472C37.0342 5.00354 36.4022 4.54959 35.6949 4.24421C34.9876 3.93883 34.2218 3.78929 33.4505 3.80593ZM37.0307 11.4829C36.6811 12.1229 36.1529 12.6495 35.5092 12.9995C34.888 13.39 34.1676 13.5973 33.4321 13.5973C32.6966 13.5973 31.9762 13.39 31.355 12.9995C30.7273 12.6288 30.2041 12.1072 29.8335 11.4829C29.4949 10.8237 29.3139 10.096 29.3045 9.35625C29.2946 8.79597 29.3984 8.23944 29.6097 7.71973C29.8211 7.20003 30.1357 6.72776 30.5348 6.33102C30.9162 5.94777 31.37 5.64278 31.8703 5.43348C32.3706 5.22417 32.9076 5.11465 33.4505 5.11117C33.9937 5.10997 34.5314 5.21739 35.0317 5.42698C35.532 5.63658 35.9845 5.94405 36.3622 6.33102C36.764 6.72579 37.0804 7.1977 37.2919 7.71787C37.5034 8.23804 37.6057 8.79553 37.5925 9.35625C37.608 10.1031 37.4135 10.8395 37.0307 11.4829ZM64.5069 14.9147H65.8889V0H64.4946L64.5069 14.9147ZM70.4983 12.4994C70.3765 12.3561 70.2236 12.2418 70.0511 12.1651C69.8785 12.0883 69.6908 12.0511 69.5018 12.0562C69.3114 12.0576 69.1233 12.0976 68.9491 12.1738C68.7749 12.2501 68.6182 12.3609 68.4889 12.4994C68.2467 12.7915 68.1147 13.1581 68.1157 13.5363C68.1421 13.877 68.2723 14.2017 68.4889 14.4674C68.6169 14.6079 68.7732 14.7202 68.9477 14.7972C69.1221 14.8743 69.3108 14.9143 69.5018 14.9147C69.6914 14.9214 69.8801 14.8845 70.053 14.8069C70.2258 14.7293 70.3783 14.6131 70.4983 14.4674C70.6401 14.3449 70.7538 14.1937 70.8317 14.0239C70.9096 13.8542 70.9499 13.6699 70.9499 13.4834C70.9499 13.2969 70.9096 13.1126 70.8317 12.9429C70.7538 12.7731 70.6401 12.6219 70.4983 12.4994Z" fill="black"/>
<defs>
<linearGradient id="paint0_linear_3_447" x1="0.645997" y1="9.05096" x2="12.5346" y2="9.05096" gradientUnits="userSpaceOnUse">
<stop stop-color="#9327FF"/>
<stop offset="0.5" stop-color="#4B7EFF"/>
<stop offset="1" stop-color="#00D7FF"/>
</linearGradient>
</defs>
</svg>
